<?xml version="1.0" encoding="utf-8"?>
<!-- Generator: Adobe Illustrator 26.0.1, SVG Export Plug-In . SVG Version: 6.00 Build 0)  -->
<svg version="1.1" id="Capa_1" xmlns="http://www.w3.org/2000/svg" xmlns:xlink="http://www.w3.org/1999/xlink" x="0px" y="0px"
	 viewBox="0 0 251.2 40" style="enable-background:new 0 0 251.2 40;" xml:space="preserve">
<style type="text/css">
	.st0{fill:#3C3C3B;}
	.st1{fill:#279D2E;}
	.st2{fill:#25B4BD;}
</style>
<path class="st0" d="M179.5,19.5c0,2.5-1.4,3.6-4.6,3.6h-5.2V10.6h4.9c3.2,0,4.6,1.1,4.6,3.3c0.1,1.3-0.9,2.5-2.2,2.7
	C178.4,16.7,179.5,18,179.5,19.5C179.5,19.5,179.5,19.5,179.5,19.5 M171.6,12.5v3.3h2.9c1.5,0,2.5-0.3,2.5-1.6s-1-1.6-2.5-1.6
	L171.6,12.5z M177.4,19.3c0-1.4-1-1.8-2.5-1.8h-3.3v3.6h3.3C176.4,21.2,177.4,20.8,177.4,19.3"/>
<path class="st0" d="M189.2,16.5v6.6h-1.4l-0.4-1.8c-0.6,1.3-1.9,2.1-3.4,2c-2.2,0-3.2-1.2-3.2-2.9c0-2.9,3.2-3.2,6.4-3.5v-0.3
	c0-1.5-0.9-2.2-2.5-2.2c-1.1,0-2.1,0.5-2.9,1.2l-1-1.5c1.1-0.9,2.5-1.4,4-1.4C187.8,12.7,189.2,14.1,189.2,16.5 M187.3,19.3v-1
	c-2.3,0.2-4.4,0.5-4.4,2c0,0.8,0.4,1.3,1.6,1.3C185.9,21.8,187.1,20.7,187.3,19.3"/>
<path class="st0" d="M200.2,16.3v6.8h-2v-6.3c0-1.6-0.7-2.3-2.1-2.3c-1.7,0-2.6,1-2.8,2.9v5.7h-1.9V12.8h1.4l0.4,1.8
	c0.7-1.3,2-2,3.5-1.9C198.9,12.7,200.2,13.9,200.2,16.3"/>
<path class="st0" d="M202.1,17.9c0-3.1,1.7-5.3,4.9-5.3c1.4,0,2.7,0.5,3.6,1.4l-0.9,1.6c-0.6-0.8-1.6-1.3-2.7-1.3
	c-1.7,0-2.9,1.2-2.9,3.6s1.4,3.6,2.9,3.6c1,0,2-0.5,2.7-1.3l0.9,1.6c-1,0.9-2.3,1.4-3.6,1.4C203.9,23.3,202.1,21.1,202.1,17.9"/>
<path class="st0" d="M211.4,17.9c0-3.2,1.4-5.3,4.8-5.3s4.7,2,4.7,5.3s-1.4,5.3-4.7,5.3S211.4,21.2,211.4,17.9 M219,17.9
	c0-2.4-0.9-3.6-2.8-3.6s-2.8,1.2-2.8,3.6s0.9,3.6,2.8,3.6S219,20.4,219,17.9"/>
<path class="st0" d="M179.7,31.6c0,2.6-1.4,4.2-4.8,4.2h-2.2v4h-3.1V27.4h5.3C178.2,27.4,179.7,29,179.7,31.6 M176.6,31.6
	c0-1.2-0.5-1.8-1.8-1.8h-2v3.5h2C176.1,33.4,176.6,32.7,176.6,31.6"/>
<path class="st0" d="M187.5,29.5v3.1c-0.4-0.1-0.7-0.1-1.1-0.1c-1.5,0-2.1,0.9-2.2,2.5v4.9h-3V29.5h2.2l0.6,2.1
	c0.4-1.3,1.5-2.2,2.9-2.2C187.1,29.4,187.3,29.4,187.5,29.5"/>
<path class="st0" d="M188.3,34.7c0-3.3,1.7-5.3,5.1-5.3s5.1,2,5.1,5.3c0,3.3-1.7,5.4-5.1,5.4S188.3,38,188.3,34.7 M195.4,34.7
	c0-2-0.6-2.9-2-2.9s-2,0.9-2,2.9s0.6,3,2,3S195.4,36.7,195.4,34.7"/>
<path class="st0" d="M209.1,29.5l-3.4,10.3h-3.4l-3.4-10.3h3l1.8,6.3c0.1,0.5,0.2,0.9,0.3,1.4c0.1-0.5,0.1-0.9,0.2-1.4l1.8-6.3
	L209.1,29.5z"/>
<path class="st0" d="M210.3,26.7h3v1.9h-3V26.7z M210.3,29.5h3v10.3h-3V29.5z"/>
<path class="st0" d="M225.1,33v6.8h-3v-6.1c0-1.3-0.5-1.9-1.6-1.9s-1.9,0.7-2,2.3v5.7h-3V29.5h2.3l0.5,1.8c0.5-1.3,1.9-2.1,3.3-2
	C223.8,29.4,225.1,30.6,225.1,33"/>
<path class="st0" d="M226.8,34.7c0-3.3,1.8-5.3,5.3-5.3c1.3,0,2.6,0.4,3.6,1.1l-0.9,2.5c-0.6-0.7-1.5-1.1-2.5-1.1
	c-1.3,0-2.4,0.9-2.4,2.8s1.2,2.8,2.4,2.8c0.9,0,1.8-0.4,2.5-1.1l0.9,2.4c-1.1,0.8-2.3,1.2-3.6,1.2C228.7,40,226.8,38,226.8,34.7"/>
<path class="st0" d="M237.2,26.7h3v1.9h-3V26.7z M237.2,29.5h3v10.3h-3V29.5z"/>
<path class="st0" d="M251.2,33.4v6.4H249l-0.5-1.9c-0.5,1.3-1.9,2.2-3.3,2.1c-2.2,0-3.1-1.3-3.1-2.9c0-2.9,2.9-3.2,6.2-3.5l0,0
	c0-1.3-0.9-1.8-2.2-1.8c-1.1,0-2.1,0.5-2.9,1.2l-1.2-2.2c1.3-0.9,2.8-1.4,4.4-1.4C249.7,29.4,251.1,30.8,251.2,33.4 M248.2,35.9
	v-0.7c-1.9,0.2-3.2,0.4-3.2,1.6c0,0.6,0.3,1,1.2,1C247.2,37.8,248.1,37,248.2,35.9C248.2,35.9,248.2,35.9,248.2,35.9"/>
<path class="st1" d="M125.4,23.7l11.6-7.3c2.6-1.6,5.2-0.3,5.2,2.5v8.5c0,0.9,0.7,1.6,1.6,1.7c0.1,0,0.1,0,0.2,0h2.2
	c7.2,0,13.5-5.2,13.5-14.1c0-9.2-7.2-15-15.7-15H126c-1.3,0-2.4,1.1-2.4,2.4v20.5c0.1,0.6,0.7,1.1,1.3,1
	C125.1,23.9,125.3,23.8,125.4,23.7"/>
<path class="st2" d="M123.6,29.4v2c0.1,4.7,3.9,8.4,8.5,8.4h4.8c1.4,0.1,2.5-1,2.6-2.3c0-0.1,0-0.1,0-0.2V20.6
	c0-0.8-0.6-1.4-1.4-1.4c-0.3,0-0.6,0.1-0.8,0.3l-12.7,8.1C123.9,27.9,123.5,28.6,123.6,29.4"/>
<rect x="101.5" y="0" class="st0" width="1.2" height="39.8"/>
<path class="st0" d="M56.6,32.5l5.6-3.6c-0.8-0.4-1.6-1.1-2.1-1.9c-1-1.5-1.5-4-1.5-7.2s0.5-5.7,1.5-7.2c1.5-2.3,4.5-3.1,6.9-1.6
	c0.7,0.4,1.2,1,1.6,1.6c1,1.6,1.6,4,1.6,7.2c0,1.4-0.1,2.9-0.4,4.2l7.3-4.6c0-2.7-0.5-5.4-1.6-7.9c-1-2.2-2.5-4-4.5-5.3
	c-4.1-2.4-9.1-2.4-13.2,0c-2,1.3-3.6,3.1-4.5,5.3c-1.2,2.6-1.7,5.4-1.6,8.3c-0.1,2.8,0.5,5.7,1.6,8.3C54.1,29.8,55.2,31.3,56.6,32.5
	"/>
<path class="st0" d="M17.9,22.6c1.6-1.4,2.9-3,3.9-4.8c0.7-1.4,1-3,1-4.5c0-1.7-0.5-3.3-1.4-4.7c-1-1.4-2.3-2.4-3.9-3.1
	c-1.8-0.8-3.8-1.1-5.7-1.1c-2.4,0-4.8,0.5-7,1.5C2.9,6.8,1.2,8.2,0,9.9l5,3.2c0.7-1,1.6-1.7,2.6-2.2c1.1-0.5,2.3-0.8,3.5-0.7
	c1.3-0.1,2.5,0.3,3.5,1c0.8,0.7,1.3,1.7,1.2,2.7c0,0.9-0.2,1.7-0.6,2.5c-0.7,1.1-1.5,2.1-2.5,3L1.4,30.2v4.5h22.4v-5.6H11L17.9,22.6
	z"/>
<path class="st0" d="M44,6.3c-4.1-2.4-9.1-2.4-13.2,0c-2,1.3-3.6,3.1-4.5,5.3c-1.2,2.6-1.7,5.4-1.6,8.2c-0.1,2.8,0.5,5.7,1.6,8.3
	c1,2.2,2.5,4,4.5,5.3c4.1,2.4,9.1,2.4,13.2,0c2-1.3,3.6-3.1,4.5-5.3c1.1-2.6,1.7-5.4,1.6-8.3c0.1-2.8-0.5-5.7-1.6-8.3
	C47.6,9.4,46,7.5,44,6.3 M41.7,27c-1.5,2.3-4.5,3.1-6.9,1.6c-0.7-0.4-1.2-1-1.6-1.6c-1-1.5-1.5-4-1.5-7.2c0-3.3,0.5-5.7,1.5-7.2
	c1.5-2.3,4.5-3.1,6.9-1.6c0.7,0.4,1.2,1,1.6,1.6c1,1.6,1.5,4,1.5,7.2S42.8,25.5,41.7,27"/>
<path class="st1" d="M69.6,33.6h-2.8l-0.6,1.3h-0.8l2.4-5.2h0.7l2.4,5.2h-0.8L69.6,33.6z M69.4,33l-1.1-2.6L67.1,33H69.4z"/>
<path class="st1" d="M76.3,29.7v5.2h-0.6L72.5,31v3.9h-0.7v-5.2h0.6l3.1,3.9v-3.9H76.3z M74.3,29.1c-0.1,0-0.2-0.1-0.3-0.2
	c-0.1-0.1-0.1-0.1-0.2-0.2c-0.1,0-0.1,0-0.2,0c-0.1,0-0.2,0-0.3,0.1c-0.1,0.1-0.1,0.2-0.1,0.3h-0.4c0-0.2,0.1-0.5,0.2-0.7
	c0.1-0.2,0.3-0.2,0.5-0.2c0.1,0,0.2,0,0.3,0.1c0.1,0.1,0.2,0.1,0.3,0.2l0.2,0.2c0.1,0,0.1,0,0.2,0c0.1,0,0.2,0,0.3-0.1
	c0.1-0.1,0.1-0.2,0.1-0.3h0.4c0,0.2-0.1,0.5-0.2,0.6c-0.1,0.2-0.3,0.2-0.5,0.2C74.5,29.2,74.4,29.2,74.3,29.1"/>
<path class="st1" d="M78.8,34.6c-0.4-0.2-0.8-0.6-1-1c-0.5-0.8-0.5-1.9,0-2.7c0.2-0.4,0.6-0.8,1-1c0.4-0.2,0.9-0.4,1.4-0.3
	c0.5,0,1,0.1,1.4,0.3c0.4,0.2,0.8,0.6,1,1c0.5,0.9,0.5,1.9,0,2.8c-0.2,0.4-0.6,0.8-1,1c-0.4,0.2-0.9,0.4-1.4,0.3
	C79.7,35,79.2,34.9,78.8,34.6 M81.3,34c0.3-0.2,0.5-0.4,0.7-0.7c0.3-0.6,0.3-1.4,0-2c-0.2-0.3-0.4-0.5-0.7-0.7
	c-0.7-0.3-1.4-0.3-2.1,0c-0.3,0.2-0.6,0.4-0.7,0.7c-0.3,0.6-0.3,1.4,0,2c0.2,0.3,0.4,0.6,0.7,0.7C79.8,34.4,80.6,34.4,81.3,34"/>
<path class="st1" d="M84.5,34.8c-0.3-0.1-0.6-0.3-0.9-0.5l0.3-0.6c0.2,0.2,0.5,0.3,0.8,0.4c0.3,0.1,0.7,0.2,1,0.2c0.3,0,0.7,0,1-0.2
	c0.2-0.1,0.3-0.3,0.3-0.6c0-0.2-0.1-0.3-0.2-0.4c-0.1-0.1-0.3-0.2-0.4-0.3c-0.2-0.1-0.4-0.1-0.7-0.2c-0.3-0.1-0.7-0.2-1-0.3
	c-0.2-0.1-0.5-0.2-0.6-0.4c-0.2-0.2-0.3-0.5-0.3-0.8c0-0.3,0.1-0.5,0.2-0.8c0.2-0.2,0.4-0.4,0.7-0.5c0.4-0.1,0.7-0.2,1.1-0.2
	c0.3,0,0.6,0,0.9,0.1c0.3,0.1,0.5,0.2,0.8,0.3l-0.2,0.6c-0.2-0.1-0.5-0.2-0.7-0.3c-0.2-0.1-0.5-0.1-0.7-0.1c-0.3,0-0.7,0-1,0.2
	c-0.2,0.1-0.3,0.4-0.3,0.6c0,0.2,0.1,0.3,0.2,0.4c0.1,0.1,0.3,0.2,0.4,0.3c0.2,0.1,0.5,0.2,0.7,0.2c0.3,0.1,0.7,0.2,1,0.3
	c0.2,0.1,0.4,0.2,0.6,0.4c0.2,0.2,0.3,0.5,0.3,0.8c0,0.3-0.1,0.5-0.2,0.8c-0.2,0.2-0.4,0.4-0.6,0.6c-0.4,0.1-0.7,0.2-1.1,0.2
	C85.3,35,84.9,34.9,84.5,34.8"/>
</svg>
